<svg width="48" height="48" viewBox="0 0 48 48" fill="none" xmlns="http://www.w3.org/2000/svg">
<rect width="48" height="48" rx="4" fill="#FF2626"/>
<path d="M24.1211 14.5938C24.1523 14.7774 24.75 18.2852 24.75 19.625C24.75 21.668 23.664 23.125 22.0586 23.711L22.5625 33.0117C22.5898 33.5469 22.164 34 21.625 34H19.125C18.5898 34 18.1602 33.5508 18.1875 33.0117L18.6914 23.711C17.082 23.125 16 21.6641 16 19.625C16 18.2813 16.5977 14.7774 16.6289 14.5938C16.7539 13.8008 18.3984 13.7891 18.5 14.6368V20.1524C18.5508 20.2852 19.0898 20.2774 19.125 20.1524C19.1797 19.1641 19.4336 14.7149 19.4375 14.6133C19.5664 13.8008 21.1836 13.8008 21.3086 14.6133C21.3164 14.7188 21.5664 19.1641 21.6211 20.1524C21.6562 20.2774 22.1992 20.2852 22.2461 20.1524V14.6368C22.3476 13.793 23.9961 13.8008 24.1211 14.5938ZM28.7773 25.7539L28.1914 32.9844C28.1445 33.5313 28.5781 34 29.125 34H31.3125C31.832 34 32.25 33.582 32.25 33.0625V14.9376C32.25 14.4219 31.832 14.0001 31.3125 14.0001C28.0898 14.0001 22.664 20.9727 28.7773 25.7539Z" fill="white"/>
</svg>
